<svg width="13" height="12" viewBox="0 0 13 12" fill="none" xmlns="http://www.w3.org/2000/svg">
<path fill-rule="evenodd" clip-rule="evenodd" d="M6.60637 0.0905762C6.88251 0.0905768 7.10637 0.314435 7.10637 0.590576L7.10636 5.41104L11.9268 5.41103C12.2029 5.41103 12.4268 5.63488 12.4268 5.91103C12.4268 6.18717 12.2029 6.41103 11.9268 6.41103L7.10635 6.41104L7.10634 11.2315C7.10634 11.5076 6.88248 11.7315 6.60634 11.7315C6.3302 11.7315 6.10634 11.5076 6.10634 11.2315L6.10635 6.41104L1.28589 6.41105C1.00975 6.41105 0.785889 6.1872 0.785889 5.91106C0.785888 5.63491 1.00975 5.41105 1.28589 5.41105L6.10636 5.41104L6.10637 0.590576C6.10637 0.314433 6.33023 0.0905755 6.60637 0.0905762Z" fill="#4F4F4F"/>
</svg>
