<svg width="17" height="16" viewBox="0 0 17 16" fill="none" xmlns="http://www.w3.org/2000/svg">
<path d="M8.38208 9.18286C8.1808 9.18286 7.98777 9.1029 7.84545 8.96058C7.70313 8.81826 7.62317 8.62522 7.62317 8.42395V6.14722C7.62317 5.94595 7.70313 5.75292 7.84545 5.61059C7.98777 5.46827 8.1808 5.38831 8.38208 5.38831C8.58335 5.38831 8.77638 5.46827 8.91871 5.61059C9.06103 5.75292 9.14099 5.94595 9.14099 6.14722V8.42395C9.14099 8.62522 9.06103 8.81826 8.91871 8.96058C8.77638 9.1029 8.58335 9.18286 8.38208 9.18286Z" fill="#F2994A"/>
<path d="M7.24365 11.0801C7.24365 10.7782 7.36359 10.4887 7.57707 10.2752C7.79056 10.0617 8.0801 9.94177 8.38202 9.94177C8.68393 9.94177 8.97348 10.0617 9.18696 10.2752C9.40045 10.4887 9.52038 10.7782 9.52038 11.0801C9.52038 11.382 9.40045 11.6716 9.18696 11.8851C8.97348 12.0986 8.68393 12.2185 8.38202 12.2185C8.0801 12.2185 7.79056 12.0986 7.57707 11.8851C7.36359 11.6716 7.24365 11.382 7.24365 11.0801Z" fill="#F2994A"/>
<path d="M7.03877 0.998782C7.60795 -0.082663 9.15612 -0.082663 9.7253 0.998782L16.0569 13.029C16.5889 14.0399 15.8573 15.2541 14.7136 15.2541H2.05046C0.908299 15.2541 0.175952 14.0399 0.707188 13.0298L7.03877 0.998782ZM14.7144 13.7363L8.38204 1.70533L2.0497 13.7363H14.7144Z" fill="#F2994A"/>
</svg>
